<svg width="80" height="80" viewBox="0 0 80 80" fill="none" xmlns="http://www.w3.org/2000/svg">
<rect x="1" y="1" width="78" height="78" rx="39" stroke="#CBD2D6" stroke-width="2"/>
<path d="M28 34.4C28 32.1598 28 31.0397 28.436 30.184C28.8195 29.4314 29.4314 28.8195 30.184 28.436C31.0397 28 32.1598 28 34.4 28H45.6C47.8402 28 48.9603 28 49.816 28.436C50.5686 28.8195 51.1805 29.4314 51.564 30.184C52 31.0397 52 32.1598 52 34.4V41.6C52 43.8402 52 44.9603 51.564 45.816C51.1805 46.5686 50.5686 47.1805 49.816 47.564C48.9603 48 47.8402 48 45.6 48H42.245C41.4129 48 40.9969 48 40.599 48.0817C40.2459 48.1541 39.9043 48.274 39.5833 48.4379C39.2216 48.6228 38.8967 48.8826 38.2469 49.4024L35.0663 51.9469C34.5116 52.3908 34.2342 52.6127 34.0007 52.6129C33.7977 52.6131 33.6056 52.5208 33.479 52.3622C33.3333 52.1797 33.3333 51.8245 33.3333 51.114V48C32.0934 48 31.4734 48 30.9647 47.8637C29.5844 47.4938 28.5062 46.4156 28.1363 45.0353C28 44.5266 28 43.9066 28 42.6667V34.4Z" stroke="#3F444B" stroke-width="2" stroke-linecap="round" stroke-linejoin="round"/>
</svg>
